<svg width="20" height="12" viewBox="0 0 20 12" fill="none" xmlns="http://www.w3.org/2000/svg">
<path fill-rule="evenodd" clip-rule="evenodd" d="M1.28125 0C0.728965 0 0.28125 0.447715 0.28125 1V9C0.28125 10.6569 1.6244 12 3.28125 12H16.7199C18.3768 12 19.7199 10.6569 19.7199 9V1C19.7199 0.447715 19.2722 0 18.7199 0H1.28125ZM10.0007 3C9.44843 3 9.00071 3.44772 9.00071 4V8C9.00071 8.55228 9.44843 9 10.0007 9C10.553 9 11.0007 8.55228 11.0007 8V4C11.0007 3.44772 10.553 3 10.0007 3ZM4.25833 4.36104C4.11539 3.82758 4.43197 3.27924 4.96543 3.1363C5.4989 2.99336 6.04724 3.30994 6.19018 3.8434L7.22545 7.70711C7.3684 8.24057 7.05181 8.78891 6.51835 8.93185C5.98488 9.07479 5.43655 8.75821 5.2936 8.22474L4.25833 4.36104ZM15.036 3.1363C14.5025 2.99335 13.9542 3.30994 13.8112 3.8434L12.776 7.70711C12.633 8.24057 12.9496 8.78891 13.4831 8.93185C14.0165 9.07479 14.5649 8.75821 14.7078 8.22474L15.7431 4.36104C15.886 3.82758 15.5695 3.27924 15.036 3.1363Z" fill="#565656"/>
</svg>
