<svg width="21" height="26" viewBox="0 0 21 26" fill="none" xmlns="http://www.w3.org/2000/svg">
<path d="M19.3136 4.27063L10.6063 0.538924C10.453 0.473293 10.2879 0.439453 10.1212 0.439453C9.95438 0.439453 9.78934 0.473293 9.63603 0.538924L0.928716 4.27063C0.703883 4.36586 0.512046 4.52515 0.377117 4.72865C0.242188 4.93214 0.170134 5.17085 0.169935 5.41502V7.97124C0.166338 11.0764 0.892064 14.1389 2.28866 16.9122C3.68525 19.6855 5.71367 22.0921 8.21052 23.938C8.29759 24.0027 8.3884 24.0624 8.47672 24.1283C9.00786 24.5089 9.55269 24.8746 10.1212 25.1993C10.6896 24.8721 11.2344 24.5089 11.7656 24.1283C11.8539 24.0649 11.9435 24.0039 12.0318 23.938C14.5286 22.0921 16.5571 19.6855 17.9537 16.9122C19.3502 14.1389 20.076 11.0764 20.0724 7.97124V5.41502C20.0722 5.17085 20.0001 4.93214 19.8652 4.72865C19.7303 4.52515 19.5384 4.36586 19.3136 4.27063ZM18.2065 7.97124C18.2018 10.5073 17.6635 13.0141 16.6267 15.3286C15.5899 17.643 14.0778 19.7135 12.1885 21.4054C11.9746 21.5994 11.7532 21.7786 11.5293 21.9664C11.3986 22.0721 11.2693 22.1803 11.1349 22.2836C10.8065 22.5324 10.4719 22.7811 10.1199 23.01C9.76789 22.7799 9.43328 22.5349 9.10489 22.2836C8.97054 22.1803 8.84242 22.0721 8.71057 21.9664C8.48667 21.7835 8.26525 21.5932 8.0513 21.4054C6.16249 19.7133 4.6508 17.6427 3.61443 15.3282C2.57806 13.0138 2.0402 10.5072 2.03579 7.97124V5.82551L10.1212 2.35502L18.2065 5.82551V7.97124Z" fill="#1A55AF"/>
<path d="M5.20721 7.30038C5.09643 7.34958 5.00226 7.42978 4.93604 7.53131C4.86983 7.63284 4.8344 7.75136 4.83404 7.87257V9.15379C4.82907 10.8409 5.18502 12.5096 5.87799 14.0479C6.57096 15.5861 7.58492 16.9584 8.85184 18.0726L8.98867 18.1721C9.25273 18.3647 9.52677 18.5432 9.80964 18.707V5.38477C9.72461 5.38807 9.64063 5.40487 9.56086 5.43452L5.20721 7.30038Z" fill="#1A55AF"/>
</svg>
