<svg width="24" height="24" viewBox="0 0 24 24" fill="none" xmlns="http://www.w3.org/2000/svg">
<g id="Stockholm-icons / Shopping / Money">
<path id="Combined Shape Copy" opacity="0.3" fill-rule="evenodd" clip-rule="evenodd" d="M3.87608 3.74515C3.34262 3.60221 2.79428 3.91879 2.65134 4.45225L0.0631468 14.1115C-0.0797949 14.645 0.236787 15.1933 0.770253 15.3363L19.1228 20.2538C19.6563 20.3968 20.2046 20.0802 20.3476 19.5467L22.9358 9.88745C23.0787 9.35399 22.7621 8.80565 22.2287 8.66271L3.87608 3.74515ZM15.3632 13.0348C14.7914 15.1686 12.5981 16.435 10.4642 15.8632C8.33032 15.2914 7.06399 13.0981 7.63576 10.9642C8.20753 8.83034 10.4009 7.56401 12.5347 8.13578C14.6686 8.70755 15.9349 10.9009 15.3632 13.0348Z" fill="#565656"/>
<path id="Combined Shape" fill-rule="evenodd" clip-rule="evenodd" d="M2 6C1.44772 6 1 6.44772 1 7V17C1 17.5523 1.44772 18 2 18H21C21.5523 18 22 17.5523 22 17V7C22 6.44772 21.5523 6 21 6H2ZM15.5 12C15.5 14.2091 13.7091 16 11.5 16C9.29086 16 7.5 14.2091 7.5 12C7.5 9.79086 9.29086 8 11.5 8C13.7091 8 15.5 9.79086 15.5 12ZM11.5 14C12.6046 14 13.5 13.1046 13.5 12C13.5 10.8954 12.6046 10 11.5 10C10.3954 10 9.5 10.8954 9.5 12C9.5 13.1046 10.3954 14 11.5 14Z" fill="#565656"/>
</g>
</svg>
