<svg width="5" height="18" viewBox="0 0 5 18" fill="none" xmlns="http://www.w3.org/2000/svg">
<path d="M4.19961 16.2C4.19961 15.2059 3.39372 14.4 2.39961 14.4C1.4055 14.4 0.599609 15.2059 0.599609 16.2C0.599609 17.1941 1.4055 18 2.39961 18C3.39372 18 4.19961 17.1941 4.19961 16.2Z" fill="#182B73"/>
<path d="M4.19961 9.00078C4.19961 8.00667 3.39372 7.20078 2.39961 7.20078C1.4055 7.20078 0.599609 8.00667 0.599609 9.00078C0.599609 9.99489 1.4055 10.8008 2.39961 10.8008C3.39372 10.8008 4.19961 9.99489 4.19961 9.00078Z" fill="#182B73"/>
<path d="M4.19961 1.79961C4.19961 0.805497 3.39372 -0.00039089 2.39961 -0.000390847C1.4055 -0.000390803 0.599609 0.805497 0.599609 1.79961C0.599609 2.79372 1.4055 3.59961 2.39961 3.59961C3.39372 3.59961 4.19961 2.79372 4.19961 1.79961Z" fill="#182B73"/>
</svg>
