<svg width="48" height="49" viewBox="0 0 48 49" fill="none" xmlns="http://www.w3.org/2000/svg">
<rect y="0.822266" width="47.7555" height="47.7555" rx="7.02287" fill="#FFF3F1"/>
<path d="M29.8794 24.5598C29.4552 24.0113 28.8151 23.6345 27.959 23.4297C29.0491 22.8737 29.5282 21.9299 29.3967 20.5984C29.3527 20.1155 29.2192 19.697 28.996 19.3423C28.7726 18.9875 28.4712 18.7023 28.0905 18.4865C27.7102 18.2705 27.2965 18.106 26.8505 17.9926C26.4043 17.8793 25.8921 17.7969 25.3142 17.7458V14.9805H23.6244V17.6689C23.3318 17.6689 22.8856 17.6762 22.2858 17.6909V14.9805H20.5958V17.7458C20.3543 17.7531 19.9996 17.7568 19.5314 17.7568L17.2051 17.7458V19.5454H18.423C18.979 19.5454 19.3046 19.7942 19.3997 20.2916V23.441C19.4729 23.441 19.5314 23.4448 19.5753 23.4521H19.3997V27.8632C19.3412 28.2362 19.1291 28.4229 18.7633 28.4229H17.5454L17.2052 30.4311H19.3999C19.5389 30.4311 19.7399 30.4329 20.0034 30.4362C20.2667 30.4399 20.4642 30.4418 20.5959 30.4418V33.2399H22.2861V30.4747C22.5933 30.4822 23.0395 30.4857 23.6248 30.4857V33.2399H25.3145V30.4418C25.9145 30.4126 26.4467 30.358 26.911 30.2772C27.3756 30.1965 27.8201 30.0705 28.2443 29.8985C28.6685 29.7267 29.0233 29.5125 29.3085 29.2565C29.5939 29.0007 29.8297 28.675 30.0165 28.2799C30.2028 27.8847 30.3218 27.4275 30.3729 26.908C30.4684 25.8914 30.3037 25.1086 29.8794 24.5598ZM22.3186 19.6658C22.3699 19.6658 22.5143 19.664 22.7521 19.6603C22.99 19.6565 23.1874 19.6529 23.3447 19.6492C23.502 19.6456 23.7142 19.6548 23.9813 19.6767C24.2483 19.6986 24.4732 19.728 24.656 19.7645C24.8389 19.801 25.0402 19.8614 25.2595 19.9455C25.4792 20.0296 25.6546 20.132 25.7861 20.2527C25.9179 20.3734 26.0295 20.5271 26.1208 20.7137C26.2123 20.9002 26.258 21.1142 26.258 21.3555C26.258 21.5604 26.2252 21.747 26.1594 21.9153C26.0938 22.0836 25.9948 22.2244 25.8632 22.3378C25.7317 22.4512 25.5961 22.5501 25.4571 22.6341C25.3182 22.7182 25.1406 22.7859 24.9249 22.8371C24.7092 22.8883 24.5208 22.9285 24.36 22.9578C24.199 22.987 23.9979 23.0072 23.7564 23.0181C23.515 23.0291 23.332 23.0365 23.2077 23.0401C23.0833 23.0437 22.9133 23.0437 22.6974 23.0401C22.4814 23.0365 22.3554 23.0346 22.3187 23.0346V19.6658H22.3186V19.6658ZM26.9331 27.1386C26.8634 27.3069 26.7739 27.4533 26.6643 27.5778C26.5544 27.7019 26.4099 27.8118 26.2308 27.9067C26.0516 28.002 25.8777 28.0787 25.7096 28.1372C25.5413 28.196 25.3382 28.2469 25.1007 28.2909C24.8626 28.3349 24.6542 28.3658 24.4748 28.3842C24.2957 28.4025 24.0818 28.4171 23.833 28.4281C23.5843 28.4389 23.3903 28.4445 23.2514 28.4445C23.1124 28.4445 22.9368 28.4425 22.7246 28.4389C22.5123 28.4355 22.3771 28.4336 22.3186 28.4336V24.7245C22.377 24.7245 22.5508 24.7209 22.8398 24.7135C23.1289 24.7061 23.3647 24.7027 23.5476 24.7027C23.7305 24.7027 23.9829 24.7135 24.3049 24.7356C24.6266 24.7574 24.8973 24.7901 25.117 24.834C25.3364 24.878 25.5758 24.9456 25.8357 25.0371C26.0953 25.1285 26.3057 25.2401 26.4667 25.3717C26.6277 25.5036 26.763 25.6716 26.8726 25.8765C26.9826 26.0813 27.0375 26.3155 27.0375 26.5789C27.0374 26.7839 27.0027 26.9702 26.9331 27.1386Z" fill="#FD8A75"/>
</svg>
