<svg width="48" height="49" viewBox="0 0 48 49" fill="none" xmlns="http://www.w3.org/2000/svg">
<rect y="0.482422" width="47.7555" height="47.7555" rx="7.02287" fill="#E0F4F8"/>
<path fill-rule="evenodd" clip-rule="evenodd" d="M28.5436 22.7584C30.6768 22.7584 32.4062 21.029 32.4062 18.8958C32.4062 16.7625 30.6768 15.0332 28.5436 15.0332C26.4104 15.0332 24.681 16.7625 24.681 18.8958C24.681 19.8736 25.0444 20.7666 25.6434 21.447C25.6999 22.065 25.6327 22.5915 25.1789 22.8653C24.4913 23.2802 23.5661 23.1411 22.7892 22.8634C22.2133 21.4541 20.8287 20.4611 19.2122 20.4611C17.0789 20.4611 15.3496 22.1904 15.3496 24.3236C15.3496 26.4569 17.0789 28.1862 19.2122 28.1862C20.933 28.1862 22.391 27.0609 22.8905 25.506C24.5645 25.2114 25.3594 26.089 25.6818 27.2316C25.0599 27.9172 24.681 28.8273 24.681 29.8258C24.681 31.9591 26.4104 33.6884 28.5436 33.6884C30.6768 33.6884 32.4062 31.9591 32.4062 29.8258C32.4062 27.6926 30.6768 25.9632 28.5436 25.9632C28.2332 25.9632 27.9314 25.9999 27.6421 26.069C27.5125 25.9146 27.3771 25.7478 27.2358 25.5679C26.3665 24.4605 26.8674 23.4383 27.6652 22.6581C27.9474 22.7237 28.2414 22.7584 28.5436 22.7584Z" fill="#43B8D5"/>
</svg>
