<svg width="48" height="49" viewBox="0 0 48 49" fill="none" xmlns="http://www.w3.org/2000/svg">
<rect y="0.652344" width="47.7555" height="47.7555" rx="7.02287" fill="#FCF6DD"/>
<path d="M16.6191 33.3793V15.6816H22.0548C25.173 15.6816 27.4653 16.4738 28.9316 18.0582C30.4149 19.6425 31.1565 21.8168 31.1565 24.581C31.1565 27.2947 30.4149 29.4437 28.9316 31.028C27.4653 32.5955 25.173 33.3793 22.0548 33.3793H16.6191ZM18.7429 31.6095H22.0043C23.7235 31.6095 25.0887 31.3314 26.1 30.7752C27.1282 30.2021 27.8614 29.3931 28.2996 28.3481C28.7378 27.2862 28.9569 26.0305 28.9569 24.581C28.9569 23.0978 28.7378 21.8253 28.2996 20.7634C27.8614 19.7015 27.1282 18.8841 26.1 18.311C25.0887 17.7379 23.7235 17.4514 22.0043 17.4514H18.7429V31.6095Z" fill="#EAC52D"/>
<rect x="14.748" y="21.6426" width="18.2595" height="1.75572" fill="#EAC52D"/>
<rect x="14.748" y="25.2656" width="18.2595" height="1.75572" fill="#EAC52D"/>
<path d="M16.6191 33.3793V15.6816H22.0548C25.173 15.6816 27.4653 16.4738 28.9316 18.0582C30.4149 19.6425 31.1565 21.8168 31.1565 24.581C31.1565 27.2947 30.4149 29.4437 28.9316 31.028C27.4653 32.5955 25.173 33.3793 22.0548 33.3793H16.6191ZM18.7429 31.6095H22.0043C23.7235 31.6095 25.0887 31.3314 26.1 30.7752C27.1282 30.2021 27.8614 29.3931 28.2996 28.3481C28.7378 27.2862 28.9569 26.0305 28.9569 24.581C28.9569 23.0978 28.7378 21.8253 28.2996 20.7634C27.8614 19.7015 27.1282 18.8841 26.1 18.311C25.0887 17.7379 23.7235 17.4514 22.0043 17.4514H18.7429V31.6095Z" fill="#EAC52D"/>
<rect x="14.748" y="21.6426" width="18.2595" height="1.75572" fill="#EAC52D"/>
<rect x="14.748" y="25.2656" width="18.2595" height="1.75572" fill="#EAC52D"/>
</svg>
